<svg height="512pt" viewBox="0 0 512 512" width="512pt" xmlns="http://www.w3.org/2000/svg"><path d="m259.199219 225.496094c10.003906 0 20.664062 2.789062 31.980469 8.527344l11.644531-28.042969c-9.351563-5.25-21.15625-8.363281-33.292969-9.511719v-17.546875h-13.53125l-10.667969 34.414063 10.667969 12.265624c.996094-.0625 2.046875-.105468 3.199219-.105468zm0 0" fill="#fdae02"/><path d="m256 239.980469-10.667969 16.019531 10.667969 16.191406c7.902344 1.796875 13.53125 3.785156 13.53125 8.082032 0 3.761718-3.613281 6.019531-13.53125 6.210937l-10.667969 12.179687 10.667969 34.417969h13.53125v-18.203125c25.417969-4.429687 38.210938-19.847656 38.210938-37.558594 0-30.699218-33.402344-33.082031-51.742188-37.339843zm0 0" fill="#fdae02"/><path d="m246.40625 196.796875c-26.894531 3.769531-40.34375 19.351563-40.34375 37.882813 0 30.058593 31.300781 33.265624 49.9375 37.511718v-32.210937c-6.9375-1.609375-11.726562-3.488281-11.726562-7.269531 0-3.535157 2.933593-6.53125 11.726562-7.109376v-46.683593h-9.59375zm0 0" fill="#fdcb02"/><path d="m254.605469 286.503906c-12.628907 0-27.058594-4.101562-37.882813-10.496094l-12.464844 28.207032c9.839844 6.070312 25.75 10.496094 42.148438 11.480468v17.382813h9.59375v-46.59375c-.457031.007813-.910156.019531-1.394531.019531zm0 0" fill="#fdcb02"/><path d="m139.691406 323.152344-49.96875 18.179687-55.503906 42.714844c11.082031 19.117187 24.71875 36.925781 40.761719 52.972656 16.046875 16.042969 33.855469 29.679688 52.972656 40.761719l42.714844-51.117188 18.183593-54.355468c-20.367187-11.800782-37.359374-28.792969-49.160156-49.15625zm0 0" fill="#f90"/><path d="m512 256c0-22.691406-2.949219-44.925781-8.632812-66.28125l-55.367188 2.28125-62.238281 29.230469c2.976562 11.09375 4.570312 22.75 4.570312 34.769531 0 37.035156-15.0625 70.617188-39.390625 94.941406l33.058594 43.726563 53.019531 42.351562c48.351563-48.351562 74.980469-112.640625 74.980469-181.019531zm0 0" fill="#04949a"/><path d="m385.761719 221.230469 117.605469-31.511719c-11.449219-43.003906-34.039063-82.429688-66.347657-114.738281l-53.019531 42.351562-33.058594 43.722657c16.429688 16.429687 28.628906 37.089843 34.820313 60.175781zm0 0" fill="#fd4b00"/><path d="m256 121.667969 10.667969-68.332031-10.667969-53.335938c-68.378906 0-132.667969 26.628906-181.019531 74.980469l31.6875 42.351562 54.390625 43.726563c24.324218-24.328125 57.90625-39.390625 94.941406-39.390625zm0 0" fill="#52e161"/><path d="m256 121.667969c37.035156 0 70.617188 15.0625 94.941406 39.390625l86.078125-86.078125c-48.351562-48.351563-112.640625-74.980469-181.019531-74.980469zm0 0" fill="#fdcb02"/><path d="m350.941406 350.941406c-24.324218 24.324219-57.90625 39.390625-94.941406 39.390625l-10.667969 47 10.667969 74.667969c68.378906 0 132.667969-26.628906 181.019531-74.980469zm0 0" fill="#00e5ee"/><path d="m188.847656 372.308594-60.894531 105.472656c38.503906 22.3125 82.359375 34.21875 128.046875 34.21875v-121.667969c-24.445312 0-47.382812-6.566406-67.152344-18.023437zm0 0" fill="#00f5ff"/><path d="m121.667969 256c0-37.035156 15.0625-70.617188 39.390625-94.941406l-86.078125-86.078125c-48.351563 48.351562-74.980469 112.640625-74.980469 181.019531 0 45.691406 11.90625 89.542969 34.21875 128.046875l105.472656-60.894531c-11.457031-19.769532-18.023437-42.707032-18.023437-67.152344zm0 0" fill="#ffd99f"/></svg>