<?xml version="1.0"?>
<svg xmlns="http://www.w3.org/2000/svg" xmlns:xlink="http://www.w3.org/1999/xlink" version="1.1" id="Layer_1" x="0px" y="0px" viewBox="0 0 505 505" style="enable-background:new 0 0 505 505;" xml:space="preserve" width="512px" height="512px" class=""><g><g><circle style="fill:#FFD05B" cx="252.5" cy="252.5" r="252.5" data-original="#FFD05B" class="" data-old_color="#FD8469"/><path style="fill:#84DBFF;" d="M162.9,405.1h-34.2c-0.4,0-0.7-0.3-0.7-0.7V282.6c0-0.4,0.3-0.7,0.7-0.7h34.2c0.4,0,0.7,0.3,0.7,0.7  v121.8C163.6,404.7,163.3,405.1,162.9,405.1z" data-original="#84DBFF" class=""/><path style="fill:#FD8469" d="M240.4,405.1h-34.2c-0.4,0-0.7-0.3-0.7-0.7V234.3c0-0.4,0.3-0.7,0.7-0.7h34.2c0.4,0,0.7,0.3,0.7,0.7  v170.1C241.1,404.7,240.8,405.1,240.4,405.1z" data-original="#FD8469" class="" data-old_color="#FFD05B"/><path style="fill:#E6E9EE;" d="M317.9,405.1h-34.2c-0.4,0-0.7-0.3-0.7-0.7V279.7c0-0.4,0.3-0.7,0.7-0.7h34.2c0.4,0,0.7,0.3,0.7,0.7  v124.7C318.6,404.7,318.3,405.1,317.9,405.1z" data-original="#E6E9EE" class=""/><path style="fill:#FFFFFF;" d="M395.4,405.1h-34.2c-0.4,0-0.7-0.3-0.7-0.7V214.8c0-0.4,0.3-0.7,0.7-0.7h34.2c0.4,0,0.7,0.3,0.7,0.7  v189.5C396.1,404.7,395.8,405.1,395.4,405.1z" data-original="#FFFFFF" class=""/><polygon style="fill:#324A5E" points="411.5,105.8 355.8,109.3 372.6,126.1 288.4,210.2 210.5,132.3 82.1,260.6 100.5,279   210.5,168.9 288.4,246.9 390.9,144.4 407.9,161.4 " data-original="#324A5E" class="active-path" data-old_color="#324A5E"/></g></g> </svg>
