<svg height="464pt" viewBox="0 0 464 464" width="464pt" xmlns="http://www.w3.org/2000/svg"><path d="m232 0c-128.128906 0-232 103.871094-232 232s103.871094 232 232 232 232-103.871094 232-232-103.871094-232-232-232zm0 368c-75.109375 0-136-60.890625-136-136s60.890625-136 136-136 136 60.890625 136 136-60.890625 136-136 136zm0 0" fill="#ee638c"/><path d="m232 0v96c45.355469-.015625 87.730469 22.585938 112.980469 60.265625 25.25 37.675781 30.050781 85.460937 12.796875 127.40625l81.75 52c35.921875-71.914063 32.058594-157.296875-10.214844-225.671875s-116.925781-109.9921875-197.3125-110zm0 0" fill="#f7cc38"/><path d="m96 232c0-75.109375 60.890625-136 136-136v-96c-80.394531.00390625-155.054688 41.625-197.328125 110.007812-42.273437 68.378907-46.132813 153.773438-10.199219 225.6875l81.75-52c-6.753906-16.398437-10.230468-33.960937-10.222656-51.695312zm0 0" fill="#60a2d7"/></svg>